<?xml version="1.0" standalone="no"?>
<!DOCTYPE svg PUBLIC "-//W3C//DTD SVG 20010904//EN"
 "http://www.w3.org/TR/2001/REC-SVG-20010904/DTD/svg10.dtd">
<svg version="1.0" xmlns="http://www.w3.org/2000/svg"
 width="512.000000pt" height="512.000000pt" viewBox="0 0 512.000000 512.000000"
 preserveAspectRatio="xMidYMid meet">

<g transform="translate(0.000000,512.000000) scale(0.100000,-0.100000)"
fill="#000000" stroke="none">
<path d="M272 4349 c-23 -4 -54 -14 -70 -21 -62 -30 -28 -114 93 -233 39 -38
487 -407 995 -819 509 -412 968 -786 1020 -831 142 -122 218 -175 250 -175 34
0 107 48 201 132 39 35 539 448 1111 918 573 470 1049 866 1059 880 10 14 21
37 25 52 9 40 -36 82 -104 97 -64 13 -4511 14 -4580 0z"/>
<path d="M57 3902 c-31 -34 -39 -80 -48 -262 -12 -270 -11 -2386 1 -2431 14
-49 32 -62 70 -54 47 10 136 99 334 335 142 169 836 943 1024 1142 30 31 35
45 35 82 0 70 -42 118 -242 279 -272 219 -949 773 -1001 821 -52 46 -136 106
-150 106 -4 0 -14 -8 -23 -18z"/>
<path d="M4962 3873 c-39 -26 -133 -102 -209 -168 -133 -117 -610 -509 -858
-707 -199 -159 -248 -214 -249 -283 -1 -38 4 -50 35 -82 179 -188 884 -976
1022 -1140 293 -350 372 -405 408 -283 15 49 5 2519 -10 2600 -10 52 -36 100
-58 107 -6 2 -42 -18 -81 -44z"/>
<path d="M1708 2516 c-78 -32 -137 -78 -249 -193 -112 -115 -1079 -1179 -1125
-1238 -54 -69 -99 -164 -99 -211 0 -51 31 -89 84 -104 53 -14 4423 -14 4475 1
57 16 96 58 96 106 0 80 -34 122 -635 786 -605 668 -694 760 -787 815 -68 40
-149 53 -194 29 -33 -17 -116 -98 -419 -405 -115 -118 -222 -220 -237 -228
-34 -18 -70 -18 -111 0 -30 13 -207 188 -502 497 -66 69 -131 132 -145 141
-45 28 -90 29 -152 4z"/>
</g>
</svg>
