<?xml version="1.0" standalone="no"?>
<!DOCTYPE svg PUBLIC "-//W3C//DTD SVG 20010904//EN"
 "http://www.w3.org/TR/2001/REC-SVG-20010904/DTD/svg10.dtd">
<svg version="1.0" xmlns="http://www.w3.org/2000/svg"
 width="621.000000pt" height="498.000000pt" viewBox="0 0 621.000000 498.000000"
 preserveAspectRatio="xMidYMid meet">

<g transform="translate(0.000000,498.000000) scale(0.100000,-0.100000)"
fill="#000000" stroke="none">
<path d="M2282 4930 c-69 -40 -175 -141 -284 -272 l-89 -106 -92 -6 c-51 -3
-182 -10 -292 -16 -110 -5 -231 -17 -270 -25 -244 -53 -494 -181 -790 -403
-151 -113 -209 -166 -281 -256 -108 -135 -181 -315 -172 -429 l3 -39 100 -39
c212 -84 301 -141 279 -176 -21 -34 -65 -56 -190 -99 -71 -24 -130 -48 -132
-52 -1 -5 24 -34 57 -65 234 -216 789 -466 1040 -468 l76 0 -84 -25 c-183 -54
-346 -135 -546 -272 -304 -207 -448 -347 -534 -521 -38 -75 -71 -196 -71 -261
l0 -47 98 -38 c183 -72 292 -135 292 -169 0 -32 -82 -75 -233 -121 -53 -17
-97 -33 -97 -38 0 -4 26 -32 58 -63 155 -150 506 -336 822 -435 105 -33 106
-34 295 -32 105 1 230 8 278 16 l88 13 47 -80 c31 -52 80 -114 142 -176 79
-80 109 -103 180 -137 160 -78 464 -114 649 -77 l34 7 -6 86 c-3 56 -14 110
-30 154 l-25 69 36 -6 c21 -3 163 -8 317 -12 351 -8 506 5 875 72 349 64 622
135 1019 266 249 82 279 90 325 83 62 -8 204 -53 491 -157 252 -91 412 -138
467 -138 32 0 40 4 48 24 11 30 4 55 -50 187 -24 59 -46 132 -52 178 -12 82
-12 85 37 261 24 86 19 162 -21 321 -46 183 -44 222 20 352 51 104 82 221 91
347 7 93 -7 209 -27 221 -24 15 -115 -14 -422 -133 -286 -111 -470 -175 -550
-189 -88 -16 -222 13 -531 116 -251 84 -459 140 -633 170 -79 13 -104 23 -164
61 -38 25 -68 47 -67 49 2 2 74 17 159 35 264 53 542 128 859 232 l304 99 76
-16 c42 -10 159 -46 261 -82 498 -174 565 -196 631 -201 59 -4 68 -2 77 15 14
25 4 66 -42 175 -73 176 -80 265 -31 420 35 111 33 178 -11 356 -45 181 -44
223 14 337 22 44 49 110 60 146 40 130 51 338 21 416 -16 43 -66 30 -459 -122
-325 -126 -477 -176 -555 -182 -84 -7 -249 32 -494 117 -205 71 -496 149 -636
170 -123 19 -221 82 -302 194 -45 61 -54 69 -115 101 -166 87 -631 224 -1071
314 -185 39 -208 39 -275 1z m168 -700 c440 -24 541 -33 804 -71 636 -90 981
-194 1680 -505 105 -47 197 -92 204 -101 31 -41 0 -123 -46 -123 -10 0 -114
43 -232 96 -401 179 -713 294 -985 364 -227 59 -615 125 -905 154 -174 18
-749 51 -756 43 -3 -3 9 -49 25 -103 82 -264 80 -421 -9 -771 -60 -233 -99
-343 -125 -355 -35 -16 -71 -3 -85 32 -11 28 -8 48 39 208 141 491 143 621 7
971 -20 51 -36 102 -36 112 0 20 41 69 57 69 5 0 168 -9 363 -20z m-728 -57
c68 -75 163 -256 194 -373 22 -85 22 -231 -1 -340 -21 -106 -89 -315 -115
-358 -33 -53 -100 -39 -116 23 -4 15 5 54 25 104 55 145 82 259 88 372 5 92 3
116 -17 180 -27 91 -58 153 -123 247 -55 79 -63 118 -32 152 26 28 66 25 97
-7z m-720 -247 c57 -27 108 -83 141 -155 63 -133 33 -296 -72 -394 -125 -117
-298 -100 -403 38 -46 61 -50 79 -6 30 43 -49 97 -75 157 -75 62 0 89 10 136
52 112 98 113 297 2 395 -100 87 -243 63 -318 -54 -34 -54 -37 -52 -10 9 27
63 83 122 144 153 45 23 62 26 122 23 40 -2 86 -12 107 -22z m-210 -333 c22
-20 24 -76 2 -97 -8 -9 -28 -16 -44 -16 -22 0 -33 7 -45 29 -33 64 36 131 87
84z m1727 -1393 c386 -22 546 -37 801 -76 588 -89 927 -193 1580 -481 118 -52
223 -104 233 -116 26 -30 19 -85 -15 -110 l-27 -20 -229 101 c-452 201 -720
299 -1014 371 -296 73 -717 140 -1018 161 -221 16 -614 37 -619 33 -2 -2 10
-49 28 -106 84 -272 82 -409 -14 -779 -68 -266 -86 -318 -118 -342 -26 -19
-30 -19 -55 -5 -49 27 -49 53 -4 206 93 314 128 494 119 623 -6 93 -55 275
-106 399 -37 87 -38 100 -10 135 25 32 7 32 468 6z m-795 -54 c89 -98 186
-309 205 -450 18 -129 -13 -312 -90 -528 -37 -102 -66 -136 -106 -122 -15 5
-34 21 -42 36 -14 24 -12 35 32 164 75 225 94 363 66 482 -17 68 -81 203 -133
277 -56 81 -63 118 -26 155 29 29 58 25 94 -14z m-711 -254 c117 -63 185 -220
157 -359 -51 -249 -310 -345 -475 -176 -21 21 -43 50 -51 65 -12 23 -6 20 29
-16 52 -51 101 -70 169 -64 63 7 122 47 163 112 41 67 47 169 15 243 -62 145
-219 191 -329 96 -23 -19 -51 -51 -62 -72 -14 -25 -18 -29 -13 -11 10 41 50
102 92 144 82 79 203 94 305 38z m-211 -336 c13 -20 8 -69 -9 -88 -30 -34 -78
-17 -96 35 -9 23 17 74 40 79 20 5 54 -9 65 -26z"/>
</g>
</svg>
