<?xml version="1.0" standalone="no"?>
<!DOCTYPE svg PUBLIC "-//W3C//DTD SVG 20010904//EN"
 "http://www.w3.org/TR/2001/REC-SVG-20010904/DTD/svg10.dtd">
<svg version="1.0" xmlns="http://www.w3.org/2000/svg"
 width="512.000000pt" height="512.000000pt" viewBox="0 0 512.000000 512.000000"
 preserveAspectRatio="xMidYMid meet">

<g transform="translate(0.000000,512.000000) scale(0.100000,-0.100000)"
fill="#000000" stroke="none">
<path d="M1280 3850 c-696 -340 -1264 -622 -1263 -627 2 -9 2528 -1243 2544
-1243 5 0 447 213 982 474 l972 474 3 -554 2 -554 150 0 150 0 0 628 0 627
146 73 c81 40 143 77 138 82 -15 14 -2536 1240 -2548 1239 -6 0 -580 -279
-1276 -619z"/>
<path d="M900 1917 l0 -533 830 -368 c704 -313 833 -368 852 -359 13 5 386
171 831 368 l807 358 0 533 0 533 -132 -63 c-73 -35 -447 -217 -830 -404
l-698 -341 -757 371 c-417 204 -791 385 -830 404 l-73 33 0 -532z"/>
</g>
</svg>
